<svg xmlns="http://www.w3.org/2000/svg" viewBox="0 0 200 220" fill="none">
  <ellipse cx="100" cy="195" rx="52" ry="8" fill="#000" opacity="0.08"/>
  <path d="M72 175c-8 12-4 22 8 24s20-8 20-20" stroke="#d4b896" stroke-width="3" stroke-linecap="round"/>
  <path d="M128 175c8 12 4 22-8 24s-20-8-20-20" stroke="#d4b896" stroke-width="3" stroke-linecap="round"/>
  <ellipse cx="100" cy="128" rx="58" ry="62" fill="#fffaf5" stroke="#e8d8c8" stroke-width="2.5"/>
  <ellipse cx="72" cy="72" rx="14" ry="18" fill="#fffaf5" stroke="#e8d8c8" stroke-width="2"/>
  <ellipse cx="128" cy="72" rx="14" ry="18" fill="#fffaf5" stroke="#e8d8c8" stroke-width="2"/>
  <circle cx="82" cy="122" r="16" fill="#f5c0b8" opacity="0.55"/>
  <circle cx="118" cy="122" r="16" fill="#f5c0b8" opacity="0.55"/>
  <ellipse cx="84" cy="108" rx="5" ry="7" fill="#3a3028"/>
  <ellipse cx="116" cy="108" rx="5" ry="7" fill="#3a3028"/>
  <path d="M94 138q6 6 12 0" stroke="#3a3028" stroke-width="2.5" stroke-linecap="round"/>
  <ellipse cx="100" cy="148" rx="4" ry="3" fill="#f0b0a8" opacity="0.5"/>
</svg>
