<svg xmlns="http://www.w3.org/2000/svg" viewBox="0 0 200 230" fill="none">
  <ellipse cx="100" cy="215" rx="50" ry="8" fill="#000" opacity="0.08"/>
  <path d="M62 188c-8 12-4 20 6 22s18-6 18-18" stroke="#4a9cc8" stroke-width="3" stroke-linecap="round"/>
  <path d="M138 188c8 12 4 20-6 22s-18-6-18-18" stroke="#4a9cc8" stroke-width="3" stroke-linecap="round"/>
  <ellipse cx="100" cy="135" rx="58" ry="62" fill="#6eb5d9" stroke="#4a9cc8" stroke-width="2.5"/>
  <path d="M42 135c0-52 26-78 58-78s58 26 58 78" fill="#fff" stroke="#d8e8f0" stroke-width="2"/>
  <path d="M42 135 L42 72 Q100 57 158 72 L158 135 Z" fill="#fff"/>
  <ellipse cx="72" cy="68" rx="14" ry="16" fill="#6eb5d9" stroke="#4a9cc8" stroke-width="2"/>
  <ellipse cx="128" cy="68" rx="14" ry="16" fill="#6eb5d9" stroke="#4a9cc8" stroke-width="2"/>
  <ellipse cx="78" cy="128" rx="5" ry="7" fill="#2a5070"/>
  <ellipse cx="118" cy="128" rx="5" ry="7" fill="#2a5070"/>
  <path d="M92 148q8 5 16 0" stroke="#2a5070" stroke-width="2.5" stroke-linecap="round"/>
  <line x1="100" y1="73" x2="100" y2="195" stroke="#d8e8f0" stroke-width="1.5" opacity="0.6"/>
</svg>
