<svg xmlns="http://www.w3.org/2000/svg" viewBox="0 0 200 260" fill="none">
  <ellipse cx="100" cy="248" rx="55" ry="8" fill="#000" opacity="0.08"/>
  <ellipse cx="68" cy="55" rx="16" ry="52" fill="#ffd93d" stroke="#e8b820" stroke-width="2.5"/>
  <ellipse cx="132" cy="55" rx="16" ry="52" fill="#ffd93d" stroke="#e8b820" stroke-width="2.5"/>
  <ellipse cx="68" cy="30" rx="10" ry="14" fill="#fff5a0"/>
  <ellipse cx="132" cy="30" rx="10" ry="14" fill="#fff5a0"/>
  <ellipse cx="100" cy="155" rx="62" ry="68" fill="#ffd93d" stroke="#e8b820" stroke-width="2.5"/>
  <circle cx="78" cy="148" r="17" fill="#f5c840" opacity="0.35"/>
  <circle cx="122" cy="148" r="17" fill="#f5c840" opacity="0.35"/>
  <ellipse cx="80" cy="132" rx="7" ry="9" fill="#2a2010"/>
  <ellipse cx="120" cy="132" rx="7" ry="9" fill="#2a2010"/>
  <ellipse cx="100" cy="168" rx="14" ry="10" fill="#2a2010"/>
  <path d="M88 168q12 14 24 0" stroke="#fff" stroke-width="2" opacity="0.4"/>
  <path d="M58 200c-6 10-2 18 6 18" stroke="#e8b820" stroke-width="3" stroke-linecap="round"/>
  <path d="M142 200c6 10 2 18-6 18" stroke="#e8b820" stroke-width="3" stroke-linecap="round"/>
</svg>
